<?xml version="1.0" standalone="no"?>
<!DOCTYPE svg PUBLIC "-//W3C//DTD SVG 20010904//EN"
 "http://www.w3.org/TR/2001/REC-SVG-20010904/DTD/svg10.dtd">
<svg version="1.0" xmlns="http://www.w3.org/2000/svg"
 width="500.000000pt" height="150.000000pt" viewBox="0 0 500.000000 150.000000"
 preserveAspectRatio="xMidYMid meet">

<g transform="translate(0.000000,150.000000) scale(0.100000,-0.100000)"
fill="#000000" stroke="none">
<path d="M803 1223 c-8 -3 11 -27 47 -62 44 -43 77 -64 123 -81 34 -13 79 -33
99 -46 44 -28 116 -101 124 -126 3 -10 10 -18 15 -18 5 0 9 -7 9 -15 0 -42 46
-129 95 -181 50 -53 54 -55 64 -36 25 47 2 190 -45 287 -81 164 -273 286 -449
284 -38 0 -76 -3 -82 -6z"/>
</g>
</svg>
