<?xml version="1.0" standalone="no"?>
<!DOCTYPE svg PUBLIC "-//W3C//DTD SVG 20010904//EN"
 "http://www.w3.org/TR/2001/REC-SVG-20010904/DTD/svg10.dtd">
<svg version="1.0" xmlns="http://www.w3.org/2000/svg"
 width="500.000000pt" height="153.000000pt" viewBox="0 0 500.000000 153.000000"
 preserveAspectRatio="xMidYMid meet">

<g transform="translate(0.000000,153.000000) scale(0.100000,-0.100000)"
fill="#000000" stroke="none">
<path d="M0 765 l0 -765 2500 0 2500 0 0 765 0 765 -2500 0 -2500 0 0 -765z
m858 462 c62 -62 62 -64 32 -59 -44 6 -146 -16 -202 -44 -60 -31 -142 -112
-173 -174 -48 -96 -51 -233 -6 -334 30 -70 120 -158 194 -192 55 -25 73 -29
157 -28 126 0 187 24 269 103 81 78 114 149 119 255 l4 78 65 -63 c64 -64 64
-64 58 -109 -11 -79 -71 -189 -140 -256 -207 -200 -520 -207 -727 -16 -121
112 -171 225 -171 387 0 162 45 267 166 382 65 63 99 84 181 114 88 31 104 27
174 -44z m2067 -462 l0 -230 -25 0 -25 0 -3 220 c-1 121 0 226 3 233 3 7 15
12 27 10 l23 -3 0 -230z m783 127 l3 -103 26 21 c31 24 65 26 104 3 47 -28 60
-69 57 -180 -3 -95 -4 -98 -27 -101 -34 -5 -41 12 -41 112 0 97 -13 126 -55
126 -49 0 -60 -21 -65 -132 -4 -89 -7 -103 -23 -106 -43 -9 -47 9 -47 228 0
115 3 216 6 225 4 10 16 15 33 13 26 -3 26 -3 29 -106z m-1942 83 c28 -11 35
-19 32 -37 -3 -24 -12 -26 -80 -13 -48 10 -85 0 -98 -25 -20 -37 -2 -59 81
-100 91 -46 113 -73 113 -140 0 -85 -48 -131 -138 -132 -71 -1 -130 28 -134
65 -4 37 20 44 57 17 46 -32 120 -25 141 13 23 41 0 74 -85 119 -87 45 -105
67 -105 125 0 59 13 81 63 104 51 22 105 24 153 4z m1454 2 c27 -9 35 -17 35
-37 0 -27 -2 -27 -93 -14 -51 7 -92 -14 -92 -50 0 -29 18 -44 103 -85 78 -37
97 -65 97 -140 0 -65 -32 -106 -95 -119 -95 -20 -200 28 -179 82 8 22 31 20
61 -4 28 -22 91 -27 123 -10 26 14 34 57 15 87 -9 13 -46 38 -82 56 -78 38
-108 72 -108 127 0 71 59 119 145 119 19 0 51 -5 70 -12z m-722 -19 c20 -20
14 -47 -12 -54 -32 -8 -46 2 -46 31 0 32 35 46 58 23z m-453 -142 c88 -37 104
-190 27 -259 -49 -45 -127 -39 -177 13 -24 26 -30 40 -33 94 -5 75 13 117 61
146 38 24 75 25 122 6z m315 1 c17 -8 25 -21 25 -37 0 -26 2 -26 -75 -14 -47
7 -70 -12 -77 -63 -7 -56 2 -90 32 -109 22 -14 31 -15 71 -4 38 11 47 11 54 0
12 -19 -5 -47 -32 -56 -66 -21 -150 2 -173 47 -18 33 -20 161 -4 190 27 50
122 75 179 46z m138 1 c8 -8 12 -55 12 -145 0 -132 0 -133 -24 -139 -14 -3
-30 -3 -35 1 -7 4 -11 56 -11 139 0 130 6 156 35 156 6 0 16 -5 23 -12z m236
-2 c52 -21 67 -66 64 -183 -3 -85 -5 -98 -21 -101 -10 -2 -26 3 -36 12 -14 13
-20 14 -37 2 -30 -20 -63 -25 -95 -14 -35 12 -49 35 -49 78 0 49 36 77 109 86
50 5 61 10 61 25 0 37 -29 52 -92 45 -56 -6 -58 -5 -58 18 0 41 88 60 154 32z
m640 8 c9 -3 16 -13 16 -20 0 -11 7 -9 29 7 40 29 96 21 132 -20 77 -85 27
-263 -74 -263 -21 0 -46 7 -56 16 -10 9 -20 16 -24 16 -3 0 -7 -37 -9 -82 -3
-81 -4 -83 -28 -83 l-25 0 -3 209 c-2 161 1 211 10 218 16 9 13 9 32 2z m764
-8 c40 -21 62 -49 68 -88 9 -55 -12 -68 -107 -68 -72 0 -79 -2 -79 -20 0 -11
9 -29 21 -41 17 -17 30 -20 62 -16 23 2 52 8 64 12 29 9 43 -19 21 -42 -42
-42 -156 -32 -204 18 -23 25 -29 39 -32 92 -4 77 18 124 68 149 42 22 82 23
118 4z m166 8 c9 -3 16 -13 16 -21 0 -11 6 -10 26 6 47 37 115 21 93 -21 -6
-11 -21 -18 -38 -18 -51 0 -70 -34 -73 -134 -3 -93 -15 -117 -52 -103 -14 5
-16 26 -16 146 0 102 3 141 13 144 6 3 13 6 14 6 1 1 8 -2 17 -5z m354 -8 c40
-21 62 -49 68 -88 9 -55 -12 -68 -107 -68 -72 0 -79 -2 -79 -20 0 -11 9 -29
21 -41 17 -17 30 -20 62 -16 23 2 52 8 64 12 29 9 43 -19 21 -42 -42 -42 -156
-32 -204 18 -23 25 -29 39 -32 92 -4 77 18 124 68 149 42 22 82 23 118 4z"/>
<path d="M1947 752 c-21 -22 -23 -120 -4 -144 21 -27 52 -30 80 -7 23 18 27
28 27 75 0 41 -5 59 -20 74 -25 25 -62 26 -83 2z"/>
<path d="M2646 647 c-11 -8 -17 -23 -14 -38 4 -35 59 -40 82 -7 27 38 21 58
-17 58 -18 0 -41 -6 -51 -13z"/>
<path d="M3424 762 c-41 -27 -46 -121 -9 -157 31 -31 49 -31 80 0 33 32 36
114 5 145 -20 20 -56 26 -76 12z"/>
<path d="M4042 764 c-12 -8 -22 -26 -22 -40 0 -23 3 -24 60 -24 56 0 60 1 60
23 0 49 -55 72 -98 41z"/>
<path d="M4562 764 c-12 -8 -22 -26 -22 -40 0 -23 3 -24 60 -24 56 0 60 1 60
23 0 49 -55 72 -98 41z"/>
</g>
</svg>
